<svg width="14" height="14" viewBox="0 0 14 14" fill="none" xmlns="http://www.w3.org/2000/svg">
<path d="M8.52792 6.99955L13.1863 2.35205C13.3902 2.14805 13.5049 1.87138 13.5049 1.58288C13.5049 1.29439 13.3902 1.01771 13.1863 0.813717C12.9823 0.609721 12.7056 0.495117 12.4171 0.495117C12.1286 0.495117 11.8519 0.609721 11.6479 0.813717L7.00042 5.47205L2.35292 0.813717C2.14893 0.609721 1.87225 0.495117 1.58376 0.495117C1.29526 0.495117 1.01858 0.609721 0.814589 0.813717C0.610593 1.01771 0.495989 1.29439 0.495989 1.58288C0.495989 1.87138 0.610593 2.14805 0.814589 2.35205L5.47292 6.99955L0.814589 11.6471C0.71305 11.7478 0.632456 11.8676 0.577457 11.9996C0.522457 12.1316 0.494141 12.2732 0.494141 12.4162C0.494141 12.5592 0.522457 12.7008 0.577457 12.8328C0.632456 12.9649 0.71305 13.0847 0.814589 13.1854C0.915299 13.2869 1.03512 13.3675 1.16713 13.4225C1.29914 13.4775 1.44074 13.5058 1.58376 13.5058C1.72677 13.5058 1.86837 13.4775 2.00038 13.4225C2.13239 13.3675 2.25221 13.2869 2.35292 13.1854L7.00042 8.52705L11.6479 13.1854C11.7486 13.2869 11.8684 13.3675 12.0005 13.4225C12.1325 13.4775 12.2741 13.5058 12.4171 13.5058C12.5601 13.5058 12.7017 13.4775 12.8337 13.4225C12.9657 13.3675 13.0855 13.2869 13.1863 13.1854C13.2878 13.0847 13.3684 12.9649 13.4234 12.8328C13.4784 12.7008 13.5067 12.5592 13.5067 12.4162C13.5067 12.2732 13.4784 12.1316 13.4234 11.9996C13.3684 11.8676 13.2878 11.7478 13.1863 11.6471L8.52792 6.99955Z" fill="#686868"/>
</svg>
