<svg width="8" height="6" viewBox="0 0 8 6" fill="none" xmlns="http://www.w3.org/2000/svg">
<path d="M7.35522 0.60493C7.30874 0.558066 7.25344 0.520869 7.19251 0.495485C7.13158 0.4701 7.06623 0.457031 7.00022 0.457031C6.93421 0.457031 6.86886 0.4701 6.80793 0.495485C6.747 0.520869 6.6917 0.558066 6.64522 0.60493L2.92022 4.33493L1.35522 2.76493C1.30696 2.71831 1.24999 2.68165 1.18756 2.65705C1.12513 2.63245 1.05847 2.62039 0.99138 2.62155C0.92429 2.62271 0.858085 2.63707 0.796546 2.66382C0.735007 2.69056 0.679338 2.72917 0.632719 2.77743C0.5861 2.82569 0.549443 2.88266 0.524841 2.94509C0.500239 3.00752 0.488174 3.07418 0.489334 3.14127C0.490495 3.20836 0.504859 3.27456 0.531606 3.3361C0.558352 3.39764 0.596958 3.45331 0.645219 3.49993L2.56522 5.41993C2.6117 5.46679 2.667 5.50399 2.72793 5.52938C2.78886 5.55476 2.85421 5.56783 2.92022 5.56783C2.98623 5.56783 3.05158 5.55476 3.11251 5.52938C3.17344 5.50399 3.22874 5.46679 3.27522 5.41993L7.35522 1.33993C7.40597 1.29311 7.44648 1.23628 7.47418 1.17303C7.50188 1.10978 7.51619 1.04148 7.51619 0.97243C7.51619 0.90338 7.50188 0.835077 7.47418 0.771827C7.44648 0.708577 7.40597 0.651752 7.35522 0.60493Z" fill="white"/>
</svg>
