<svg width="31" height="27" viewBox="0 0 31 27" fill="none" xmlns="http://www.w3.org/2000/svg">
<path d="M28.9457 13.5C29.6716 12.7014 30.0767 11.6626 30.0832 10.5833C30.0832 9.42301 29.6222 8.31021 28.8018 7.48974C27.9813 6.66927 26.8685 6.20833 25.7082 6.20833H18.154C18.387 5.54943 18.4587 4.8443 18.3632 4.15198C18.2676 3.45966 18.0076 2.8003 17.6049 2.2291C17.2022 1.6579 16.6686 1.19149 16.0486 0.868906C15.4286 0.546324 14.7404 0.376962 14.0415 0.375H5.2915C4.13118 0.375 3.01838 0.835936 2.19791 1.65641C1.37744 2.47688 0.916504 3.58968 0.916504 4.75C0.922936 5.82925 1.32806 6.86803 2.054 7.66667C1.33657 8.46878 0.939936 9.50718 0.939936 10.5833C0.939936 11.6595 1.33657 12.6979 2.054 13.5C1.33657 14.3021 0.939936 15.3405 0.939936 16.4167C0.939936 17.4928 1.33657 18.5312 2.054 19.3333C1.32806 20.132 0.922936 21.1708 0.916504 22.25C0.916504 23.4103 1.37744 24.5231 2.19791 25.3436C3.01838 26.1641 4.13118 26.625 5.2915 26.625H25.7082C26.5507 26.6205 27.3741 26.3728 28.0793 25.9116C28.7844 25.4505 29.3415 24.7955 29.6834 24.0254C30.0253 23.2553 30.1376 22.4029 30.0067 21.5706C29.8758 20.7382 29.5074 19.9613 28.9457 19.3333C29.6631 18.5312 30.0597 17.4928 30.0597 16.4167C30.0597 15.3405 29.6631 14.3021 28.9457 13.5ZM14.0415 23.7083H5.2915C4.90473 23.7083 4.5338 23.5547 4.26031 23.2812C3.98682 23.0077 3.83317 22.6368 3.83317 22.25C3.83317 21.8632 3.98682 21.4923 4.26031 21.2188C4.5338 20.9453 4.90473 20.7917 5.2915 20.7917H14.0415C14.4283 20.7917 14.7992 20.9453 15.0727 21.2188C15.3462 21.4923 15.4998 21.8632 15.4998 22.25C15.4998 22.6368 15.3462 23.0077 15.0727 23.2812C14.7992 23.5547 14.4283 23.7083 14.0415 23.7083ZM14.0415 17.875H5.2915C4.90473 17.875 4.5338 17.7214 4.26031 17.4479C3.98682 17.1744 3.83317 16.8034 3.83317 16.4167C3.83317 16.0299 3.98682 15.659 4.26031 15.3855C4.5338 15.112 4.90473 14.9583 5.2915 14.9583H14.0415C14.4283 14.9583 14.7992 15.112 15.0727 15.3855C15.3462 15.659 15.4998 16.0299 15.4998 16.4167C15.4998 16.8034 15.3462 17.1744 15.0727 17.4479C14.7992 17.7214 14.4283 17.875 14.0415 17.875ZM14.0415 12.0417H5.2915C4.90473 12.0417 4.5338 11.888 4.26031 11.6145C3.98682 11.341 3.83317 10.9701 3.83317 10.5833C3.83317 10.1966 3.98682 9.82563 4.26031 9.55214C4.5338 9.27865 4.90473 9.125 5.2915 9.125H14.0415C14.4283 9.125 14.7992 9.27865 15.0727 9.55214C15.3462 9.82563 15.4998 10.1966 15.4998 10.5833C15.4998 10.9701 15.3462 11.341 15.0727 11.6145C14.7992 11.888 14.4283 12.0417 14.0415 12.0417ZM14.0415 6.20833H5.2915C4.90473 6.20833 4.5338 6.05469 4.26031 5.7812C3.98682 5.50771 3.83317 5.13677 3.83317 4.75C3.83317 4.36323 3.98682 3.99229 4.26031 3.7188C4.5338 3.44531 4.90473 3.29167 5.2915 3.29167H14.0415C14.4283 3.29167 14.7992 3.44531 15.0727 3.7188C15.3462 3.99229 15.4998 4.36323 15.4998 4.75C15.4998 5.13677 15.3462 5.50771 15.0727 5.7812C14.7992 6.05469 14.4283 6.20833 14.0415 6.20833ZM26.7144 23.2854C26.5851 23.4218 26.4289 23.5298 26.2557 23.6026C26.0825 23.6754 25.896 23.7114 25.7082 23.7083H18.154C18.5037 22.7676 18.5037 21.7324 18.154 20.7917H25.7082C26.0949 20.7917 26.4659 20.9453 26.7394 21.2188C27.0129 21.4923 27.1665 21.8632 27.1665 22.25C27.1638 22.444 27.1224 22.6355 27.0448 22.8133C26.9672 22.9911 26.8549 23.1516 26.7144 23.2854ZM26.7144 17.4521C26.5851 17.5884 26.4289 17.6964 26.2557 17.7692C26.0825 17.842 25.896 17.8781 25.7082 17.875H18.154C18.5037 16.9342 18.5037 15.8991 18.154 14.9583H25.7082C26.0949 14.9583 26.4659 15.112 26.7394 15.3855C27.0129 15.659 27.1665 16.0299 27.1665 16.4167C27.1638 16.6106 27.1224 16.8021 27.0448 16.9799C26.9672 17.1577 26.8549 17.3182 26.7144 17.4521ZM26.7144 11.6188C26.5851 11.7551 26.4289 11.8631 26.2557 11.9359C26.0825 12.0087 25.896 12.0447 25.7082 12.0417H18.154C18.5037 11.1009 18.5037 10.0658 18.154 9.125H25.7082C26.0949 9.125 26.4659 9.27865 26.7394 9.55214C27.0129 9.82563 27.1665 10.1966 27.1665 10.5833C27.1638 10.7773 27.1224 10.9688 27.0448 11.1466C26.9672 11.3244 26.8549 11.4849 26.7144 11.6188Z" fill="#FFBF5F"/>
</svg>
