<svg width="18" height="14" viewBox="0 0 18 14" fill="none" xmlns="http://www.w3.org/2000/svg">
<path d="M9.29639 8.37455L9.57475 8.44856L9.77842 8.24489L12.0951 5.92823C12.1582 5.86508 12.2439 5.8296 12.3332 5.8296C12.4225 5.8296 12.5082 5.86508 12.5713 5.92823C12.6345 5.99138 12.6699 6.07703 12.6699 6.16634C12.6699 6.25565 12.6345 6.3413 12.5713 6.40445L10.2546 8.72112L10.051 8.92479L10.125 9.20315C10.151 9.301 10.1649 9.40166 10.1665 9.50289C10.1657 9.81115 10.0429 10.1066 9.82482 10.3246C9.60678 10.5427 9.31134 10.6655 9.00308 10.6663C8.90185 10.6648 8.80119 10.6508 8.70334 10.6248L8.42498 10.5508L8.22131 10.7545L7.57131 11.4045L7.56986 11.4059C7.53887 11.4372 7.502 11.4619 7.46139 11.4789C7.42077 11.4958 7.3772 11.5045 7.3332 11.5045C7.28919 11.5045 7.24562 11.4958 7.205 11.4789C7.16439 11.4619 7.12752 11.4372 7.09653 11.4059L7.09363 11.403C7.06239 11.372 7.03759 11.3352 7.02067 11.2945C7.00374 11.2539 6.99503 11.2103 6.99503 11.1663C6.99503 11.1223 7.00374 11.0788 7.02067 11.0381C7.03759 10.9975 7.06239 10.9607 7.09363 10.9297L7.09508 10.9282L7.74508 10.2782L7.94875 10.0746L7.87474 9.7962C7.84872 9.69834 7.83477 9.59767 7.8332 9.49644C7.83405 9.18819 7.95688 8.89275 8.1749 8.67472C8.39294 8.45668 8.68839 8.33386 8.99665 8.33301C9.09788 8.33459 9.19854 8.34854 9.29639 8.37455ZM1.16653 8.66758V8.66634C1.16653 6.58881 1.99182 4.59637 3.46086 3.12734C4.18825 2.39995 5.05179 1.82295 6.00218 1.42928C6.95256 1.03562 7.97117 0.833008 8.99986 0.833008C11.0774 0.833008 13.0698 1.6583 14.5389 3.12734C16.0079 4.59637 16.8332 6.58881 16.8332 8.66634L16.8332 8.66758C16.8371 10.218 16.3763 11.7339 15.5104 13.02C15.4799 13.0651 15.4387 13.102 15.3906 13.1275C15.3423 13.1531 15.2885 13.1664 15.2339 13.1663L15.2321 13.1663C15.1656 13.1665 15.1006 13.1468 15.0454 13.1097C15.0091 13.0852 14.978 13.0539 14.9539 13.0174C14.9297 12.9809 14.9129 12.9399 14.9045 12.8968C14.8962 12.8538 14.8964 12.8095 14.9052 12.7666C14.9139 12.7236 14.9311 12.6828 14.9557 12.6465L14.9572 12.6443C15.6787 11.5653 16.0937 10.3106 16.1578 9.01412C16.2219 7.71766 15.9326 6.42814 15.321 5.28325C14.7093 4.13836 13.7982 3.18109 12.6849 2.51366C11.5716 1.84622 10.2979 1.49368 8.99986 1.49368C7.70182 1.49368 6.42815 1.84622 5.31485 2.51366C4.20155 3.18109 3.29043 4.13836 2.67876 5.28325C2.06709 6.42814 1.77786 7.71766 1.84193 9.01412C1.90601 10.3106 2.32099 11.5653 3.04257 12.6443L3.04371 12.646C3.09331 12.7195 3.11168 12.8097 3.09477 12.8968C3.07786 12.9838 3.02706 13.0606 2.95355 13.1102C2.88003 13.1598 2.78983 13.1782 2.70277 13.1612C2.61572 13.1443 2.53894 13.0935 2.48934 13.02L2.07486 13.2997L2.48959 13.0204C1.62351 11.7343 1.16267 10.2181 1.16653 8.66758Z" stroke-width="0.7"/>
</svg>
