<svg width="17" height="19" viewBox="0 0 17 19" fill="none" xmlns="http://www.w3.org/2000/svg">
<path d="M6.83035 14.6417C7.06054 14.6417 7.2813 14.5502 7.44407 14.3875C7.60684 14.2247 7.69828 14.0039 7.69828 13.7738V8.5662C7.69828 8.33602 7.60684 8.11526 7.44407 7.95249C7.2813 7.78972 7.06054 7.69828 6.83035 7.69828C6.60017 7.69828 6.37941 7.78972 6.21664 7.95249C6.05387 8.11526 5.96243 8.33602 5.96243 8.5662V13.7738C5.96243 14.0039 6.05387 14.2247 6.21664 14.3875C6.37941 14.5502 6.60017 14.6417 6.83035 14.6417ZM15.5096 4.22658H12.0379V3.35866C12.0379 2.66809 11.7636 2.00581 11.2753 1.51751C10.787 1.02921 10.1247 0.754883 9.43413 0.754883H7.69828C7.00772 0.754883 6.34544 1.02921 5.85713 1.51751C5.36883 2.00581 5.09451 2.66809 5.09451 3.35866V4.22658H1.62281C1.39262 4.22658 1.17186 4.31802 1.00909 4.48079C0.846325 4.64356 0.754883 4.86432 0.754883 5.09451C0.754883 5.32469 0.846325 5.54545 1.00909 5.70822C1.17186 5.87099 1.39262 5.96243 1.62281 5.96243H2.49073V15.5096C2.49073 16.2002 2.76506 16.8624 3.25336 17.3507C3.74166 17.839 4.40394 18.1134 5.09451 18.1134H12.0379C12.7285 18.1134 13.3907 17.839 13.879 17.3507C14.3674 16.8624 14.6417 16.2002 14.6417 15.5096V5.96243H15.5096C15.7398 5.96243 15.9605 5.87099 16.1233 5.70822C16.2861 5.54545 16.3775 5.32469 16.3775 5.09451C16.3775 4.86432 16.2861 4.64356 16.1233 4.48079C15.9605 4.31802 15.7398 4.22658 15.5096 4.22658ZM6.83035 3.35866C6.83035 3.12847 6.9218 2.90771 7.08456 2.74494C7.24733 2.58217 7.46809 2.49073 7.69828 2.49073H9.43413C9.66432 2.49073 9.88508 2.58217 10.0478 2.74494C10.2106 2.90771 10.3021 3.12847 10.3021 3.35866V4.22658H6.83035V3.35866ZM12.9058 15.5096C12.9058 15.7398 12.8144 15.9605 12.6516 16.1233C12.4889 16.2861 12.2681 16.3775 12.0379 16.3775H5.09451C4.86432 16.3775 4.64356 16.2861 4.48079 16.1233C4.31802 15.9605 4.22658 15.7398 4.22658 15.5096V5.96243H12.9058V15.5096ZM10.3021 14.6417C10.5322 14.6417 10.753 14.5502 10.9158 14.3875C11.0785 14.2247 11.17 14.0039 11.17 13.7738V8.5662C11.17 8.33602 11.0785 8.11526 10.9158 7.95249C10.753 7.78972 10.5322 7.69828 10.3021 7.69828C10.0719 7.69828 9.85111 7.78972 9.68834 7.95249C9.52557 8.11526 9.43413 8.33602 9.43413 8.5662V13.7738C9.43413 14.0039 9.52557 14.2247 9.68834 14.3875C9.85111 14.5502 10.0719 14.6417 10.3021 14.6417Z" fill="#9B9B9B"/>
</svg>
