<svg width="16" height="9" viewBox="0 0 16 9" fill="none" xmlns="http://www.w3.org/2000/svg">
<path d="M6.22818 8.52092L4.94085 8.17558L5.46551 6.21625C4.68016 5.9266 3.95026 5.50449 3.30751 4.96825L1.87218 6.40425L0.928846 5.46092L2.36485 4.02558C1.55423 3.05476 1.00957 1.89009 0.78418 0.645583L2.09618 0.40625C2.60218 3.20758 5.05285 5.33292 8.00018 5.33292C10.9468 5.33292 13.3982 3.20758 13.9042 0.40625L15.2162 0.644917C14.9911 1.88959 14.4467 3.0545 13.6362 4.02558L15.0715 5.46092L14.1282 6.40425L12.6928 4.96825C12.0501 5.50449 11.3202 5.9266 10.5348 6.21625L11.0595 8.17625L9.77218 8.52092L9.24685 6.56092C8.42175 6.7023 7.57861 6.7023 6.75351 6.56092L6.22818 8.52092Z" fill="#666666"/>
</svg>
