<svg width="22" height="22" viewBox="0 0 22 22" fill="none" xmlns="http://www.w3.org/2000/svg">
<path d="M10.3492 11.0001L13.5942 7.75505C13.765 7.58331 13.8608 7.35097 13.8608 7.1088C13.8608 6.86663 13.765 6.6343 13.5942 6.46255C13.509 6.37664 13.4076 6.30844 13.2959 6.2619C13.1842 6.21537 13.0644 6.19141 12.9434 6.19141C12.8224 6.19141 12.7026 6.21537 12.5909 6.2619C12.4792 6.30844 12.3778 6.37664 12.2926 6.46255L8.40591 10.3492C8.32 10.4344 8.2518 10.5358 8.20526 10.6475C8.15873 10.7592 8.13477 10.879 8.13477 11.0001C8.13477 11.1211 8.15873 11.2409 8.20526 11.3526C8.2518 11.4643 8.32 11.5657 8.40591 11.6509L12.2926 15.5834C12.3782 15.6683 12.4798 15.7356 12.5915 15.7812C12.7032 15.8268 12.8228 15.8499 12.9434 15.8492C13.0641 15.8499 13.1836 15.8268 13.2953 15.7812C13.407 15.7356 13.5086 15.6683 13.5942 15.5834C13.765 15.4116 13.8608 15.1793 13.8608 14.9371C13.8608 14.695 13.765 14.4626 13.5942 14.2909L10.3492 11.0001Z" fill="black"/>
</svg>
