<svg width="34" height="36" viewBox="0 0 34 36" fill="none" xmlns="http://www.w3.org/2000/svg">
<path d="M0.644187 5.28395C0.652865 2.66445 2.76004 0.552774 5.34508 0.561715C7.93012 0.570656 10.0233 2.69686 10.0146 5.31636C10.0059 7.93586 7.89872 10.0475 5.31368 10.0386C2.72864 10.0297 0.635508 7.90345 0.644187 5.28395Z" stroke="#282828" stroke-width="0.5"/>
<path d="M2.04203 5.28891C2.04812 3.45012 3.52705 1.96918 5.33971 1.97545C7.15236 1.98172 8.62145 3.47286 8.61536 5.31164C8.60927 7.15043 7.13033 8.63137 5.31768 8.6251C3.50502 8.61883 2.03593 7.12769 2.04203 5.28891Z" stroke="#282828" stroke-width="0.5"/>
<path d="M27.7575 14.1808C27.763 12.5169 29.1012 11.1773 30.7408 11.183C32.3804 11.1886 33.7097 12.5375 33.7042 14.2014C33.6986 15.8652 32.3605 17.2049 30.7209 17.1992C29.0813 17.1935 27.752 15.8447 27.7575 14.1808Z" stroke="#282828" stroke-width="0.5"/>
<path fill-rule="evenodd" clip-rule="evenodd" d="M11.1776 31.0614C11.1717 31.1544 11.1686 31.2483 11.1683 31.3428C11.16 33.8716 13.1815 35.9287 15.6835 35.9374C18.1855 35.9462 20.2205 33.9033 20.2288 31.3745C20.2291 31.2794 20.2265 31.1851 20.2212 31.0915C26.1611 29.3079 30.6301 24.0615 31.3283 17.6608C31.1304 17.6954 30.9268 17.713 30.7189 17.7123C30.5836 17.7118 30.45 17.7036 30.3187 17.6879C29.6212 23.5842 25.5096 28.4053 20.0543 30.0962C19.5134 28.1872 17.7768 26.787 15.7135 26.7798C13.6497 26.7726 11.9036 28.1614 11.3507 30.0673C5.37752 28.1728 1.04421 22.5224 1.06564 15.8482C1.07271 13.6451 1.55357 11.5569 2.40994 9.6812C2.1241 9.48627 1.85837 9.26355 1.61655 9.01688C0.6298 11.0823 0.0734926 13.3978 0.0656415 15.8447C0.0426491 23.0081 4.72722 29.078 11.1776 31.0614ZM9.68096 2.37632C11.544 1.52108 13.614 1.04824 15.7922 1.05601C22.1297 1.07864 27.526 5.16344 29.5594 10.8735C29.8712 10.7611 30.2036 10.6924 30.5492 10.6746C28.4173 4.51149 22.6231 0.0803976 15.7954 0.0560189C13.3756 0.0473786 11.0821 0.593149 9.03266 1.5751C9.27357 1.81973 9.49091 2.08807 9.68096 2.37632Z" fill="#282828"/>
</svg>
