<svg width="116" height="38" viewBox="0 0 116 38" fill="none" xmlns="http://www.w3.org/2000/svg">
<path d="M28.4326 24.6585C28.4326 22.9639 28.9585 21.7212 30.0102 20.9304C31.0723 20.1395 32.4694 19.7441 34.2017 19.7441C34.7379 19.7441 35.3101 19.7698 35.9185 19.8212C36.5268 19.8622 37.1197 19.9341 37.6972 20.0368V18.4039C37.6972 17.2228 37.4342 16.3909 36.9083 15.9082C36.3928 15.4152 35.7019 15.1687 34.8358 15.1687C33.98 15.1687 33.1242 15.2971 32.2683 15.5539C31.4125 15.8004 30.5722 16.1085 29.7473 16.4782C29.5514 16.3139 29.3761 16.0674 29.2214 15.7387C29.0667 15.3998 28.9894 15.0866 28.9894 14.799C29.7421 14.4704 30.6547 14.1468 31.727 13.8285C32.7994 13.5101 33.882 13.3509 34.975 13.3509C36.5939 13.3509 37.79 13.7925 38.5633 14.6758C39.3366 15.559 39.7233 16.8222 39.7233 18.4655V24.8125C39.7233 25.4801 39.7697 26.0655 39.8625 26.5687C39.9553 27.072 40.1976 27.5085 40.5894 27.8782C40.5069 28.0836 40.3729 28.2941 40.1873 28.5098C40.012 28.7152 39.8058 28.8693 39.5686 28.972C39.0427 28.746 38.6355 28.4482 38.3467 28.0785C38.0683 27.6985 37.8828 27.2517 37.79 26.7382C37.2125 27.3031 36.5062 27.8422 35.671 28.3558C34.8461 28.8693 33.913 29.126 32.8715 29.126C31.8817 29.126 31.0568 28.9052 30.3969 28.4636C29.737 28.022 29.242 27.4622 28.9121 26.7844C28.5924 26.0963 28.4326 25.3877 28.4326 24.6585ZM30.5825 24.5044C30.5825 25.2849 30.7939 25.9474 31.2166 26.4917C31.6497 27.036 32.2787 27.3082 33.1035 27.3082C33.8356 27.3082 34.6141 27.0925 35.439 26.6612C36.2742 26.2195 37.0269 25.5622 37.6972 24.6893V21.5774C37.1507 21.4952 36.5732 21.4387 35.9649 21.4079C35.3668 21.3668 34.7791 21.3463 34.2017 21.3463C33.0984 21.3463 32.2168 21.6236 31.5569 22.1782C30.9073 22.7225 30.5825 23.4979 30.5825 24.5044ZM56.6108 25.9063C56.6108 26.3993 56.6314 26.8717 56.6727 27.3236C56.7139 27.7652 56.8067 28.1555 56.9511 28.4944C56.6108 28.7922 56.1623 28.9412 55.6055 28.9412C54.8837 28.9412 54.5228 28.479 54.5228 27.5547V18.8506C54.5228 17.5976 54.363 16.6939 54.0434 16.1393C53.7237 15.5744 53.105 15.292 52.1874 15.292C51.352 15.292 50.4704 15.5282 49.5424 16.0006C48.6248 16.4731 47.8617 17.0585 47.2534 17.7568V28.7563C46.9853 28.8179 46.645 28.8487 46.2326 28.8487C45.7892 28.8487 45.4335 28.8179 45.1654 28.7563V13.7514L45.351 13.5666H46.1398C46.6244 13.5666 46.9286 13.6949 47.0523 13.9517C47.1864 14.1982 47.2534 14.5525 47.2534 15.0147V15.6463C47.9442 14.9685 48.7691 14.4241 49.7281 14.0133C50.6973 13.5922 51.6718 13.3817 52.6514 13.3817C53.6412 13.3817 54.4197 13.6025 54.9868 14.0441C55.5642 14.4755 55.9767 15.0558 56.2242 15.7849C56.4819 16.5039 56.6108 17.2947 56.6108 18.1574V25.9063ZM64.0786 28.7563C63.8106 28.8179 63.4703 28.8487 63.0578 28.8487C62.6351 28.8487 62.2897 28.8179 62.0216 28.7563V6.29522L62.2072 6.11035H62.965C63.4497 6.11035 63.7538 6.23873 63.8776 6.49549C64.0116 6.74197 64.0786 7.10143 64.0786 7.57387V20.1293L65.4861 20.0522C65.7336 20.0522 65.9604 19.9239 66.1666 19.6671L69.6002 14.6449C69.8271 14.306 70.0488 14.0441 70.2653 13.8593C70.4818 13.6641 70.8221 13.5666 71.2861 13.5666C71.482 13.5666 71.6521 13.5717 71.7965 13.582C71.9409 13.582 72.111 13.5871 72.3069 13.5974L72.4925 13.8439L68.4402 19.6671C68.234 19.9752 68.0123 20.232 67.7752 20.4374C68.5176 20.5709 69.1156 20.8636 69.5693 21.3155C70.0333 21.7674 70.4612 22.4247 70.853 23.2874L72.0904 26.0295C72.3275 26.5533 72.5698 27.0206 72.8173 27.4314C73.0648 27.832 73.3174 28.1247 73.5752 28.3095C73.4618 28.4739 73.271 28.6228 73.0029 28.7563C72.7348 28.8795 72.4616 28.9412 72.1832 28.9412C71.6986 28.9412 71.3428 28.8025 71.116 28.5252C70.8994 28.2377 70.6829 27.8577 70.4664 27.3852L68.997 24.1347C68.5949 23.2412 68.1876 22.6301 67.7752 22.3014C67.3627 21.9728 66.7028 21.8085 65.7954 21.8085C65.3624 21.8085 64.7901 21.8393 64.0786 21.9009V28.7563ZM88.0009 21.2077C88.0009 22.7276 87.7586 24.0885 87.274 25.2901C86.7997 26.4814 86.0882 27.4212 85.1396 28.1093C84.191 28.7871 83.0155 29.126 81.6132 29.126C80.2006 29.126 79.02 28.782 78.0713 28.0939C77.133 27.3955 76.4267 26.4506 75.9524 25.2593C75.4884 24.0577 75.2564 22.7071 75.2564 21.2077C75.2564 19.6979 75.4936 18.3474 75.9679 17.156C76.4525 15.9647 77.164 15.0249 78.1023 14.3368C79.0509 13.6385 80.2212 13.2893 81.6132 13.2893C83.0258 13.2893 84.2064 13.6385 85.1551 14.3368C86.1037 15.0249 86.8152 15.9647 87.2895 17.156C87.7638 18.3474 88.0009 19.6979 88.0009 21.2077ZM77.4372 21.2077C77.4372 22.2347 77.5661 23.2309 77.8239 24.1963C78.0816 25.1514 78.5147 25.9371 79.1231 26.5533C79.7417 27.1593 80.5821 27.4622 81.6441 27.4622C82.6959 27.4622 83.5259 27.1593 84.1343 26.5533C84.7426 25.9371 85.1757 25.1514 85.4335 24.1963C85.6912 23.2309 85.8201 22.2347 85.8201 21.2077C85.8201 20.1909 85.6912 19.2049 85.4335 18.2498C85.1757 17.2844 84.7426 16.4885 84.1343 15.862C83.5259 15.2355 82.6959 14.9222 81.6441 14.9222C80.5821 14.9222 79.7417 15.2355 79.1231 15.862C78.5147 16.4885 78.0816 17.2844 77.8239 18.2498C77.5661 19.2049 77.4372 20.1909 77.4372 21.2077ZM91.6062 14.6295C91.6681 14.4344 91.7867 14.2187 91.9619 13.9825C92.1475 13.7463 92.3486 13.5666 92.5651 13.4433C93.1323 13.6693 93.5859 14.0185 93.9262 14.4909C94.2768 14.9531 94.5191 15.5179 94.6531 16.1855C95.0243 15.4152 95.5502 14.7682 96.2307 14.2444C96.9113 13.7104 97.7722 13.4433 98.8137 13.4433C98.958 13.4433 99.1488 13.4536 99.3859 13.4741C99.6334 13.4947 99.9015 13.5255 100.19 13.5666C100.19 13.9055 100.154 14.2547 100.082 14.6141C100.02 14.9736 99.8963 15.292 99.7107 15.5693C99.5458 15.5487 99.3705 15.5385 99.1849 15.5385C99.0096 15.5385 98.8395 15.5385 98.6745 15.5385C97.9733 15.5385 97.3701 15.6874 96.8649 15.9852C96.3699 16.2728 95.9523 16.6425 95.6121 17.0944C95.2821 17.536 95.014 17.9931 94.8078 18.4655V28.7563C94.5397 28.8179 94.1994 28.8487 93.787 28.8487C93.3436 28.8487 92.9879 28.8179 92.7198 28.7563V17.7722C92.7198 17.0225 92.6012 16.3806 92.3641 15.8466C92.1372 15.3125 91.8846 14.9068 91.6062 14.6295ZM101.869 24.6585C101.869 22.9639 102.395 21.7212 103.446 20.9304C104.509 20.1395 105.906 19.7441 107.638 19.7441C108.174 19.7441 108.746 19.7698 109.355 19.8212C109.963 19.8622 110.556 19.9341 111.133 20.0368V18.4039C111.133 17.2228 110.87 16.3909 110.345 15.9082C109.829 15.4152 109.138 15.1687 108.272 15.1687C107.416 15.1687 106.56 15.2971 105.705 15.5539C104.849 15.8004 104.008 16.1085 103.184 16.4782C102.988 16.3139 102.812 16.0674 102.658 15.7387C102.503 15.3998 102.426 15.0866 102.426 14.799C103.178 14.4704 104.091 14.1468 105.163 13.8285C106.236 13.5101 107.318 13.3509 108.411 13.3509C110.03 13.3509 111.226 13.7925 112 14.6758C112.773 15.559 113.16 16.8222 113.16 18.4655V24.8125C113.16 25.4801 113.206 26.0655 113.299 26.5687C113.392 27.072 113.634 27.5085 114.026 27.8782C113.943 28.0836 113.809 28.2941 113.624 28.5098C113.448 28.7152 113.242 28.8693 113.005 28.972C112.479 28.746 112.072 28.4482 111.783 28.0785C111.505 27.6985 111.319 27.2517 111.226 26.7382C110.649 27.3031 109.942 27.8422 109.107 28.3558C108.282 28.8693 107.349 29.126 106.308 29.126C105.318 29.126 104.493 28.9052 103.833 28.4636C103.173 28.022 102.678 27.4622 102.348 26.7844C102.029 26.0963 101.869 25.3877 101.869 24.6585ZM104.019 24.5044C104.019 25.2849 104.23 25.9474 104.653 26.4917C105.086 27.036 105.715 27.3082 106.54 27.3082C107.272 27.3082 108.05 27.0925 108.875 26.6612C109.71 26.2195 110.463 25.5622 111.133 24.6893V21.5774C110.587 21.4952 110.009 21.4387 109.401 21.4079C108.803 21.3668 108.215 21.3463 107.638 21.3463C106.535 21.3463 105.653 21.6236 104.993 22.1782C104.344 22.7225 104.019 23.4979 104.019 24.5044Z" fill="#282828"/>
<path d="M3.64668 7.01326C1.85809 7.00723 0.40324 8.44653 0.397184 10.228C0.391127 12.0095 1.83616 13.4586 3.62475 13.4647C5.41334 13.4707 6.86819 12.0314 6.87425 10.2499C6.8803 8.46838 5.43527 7.01929 3.64668 7.01326Z" stroke="#282828" stroke-width="0.5"/>
<path d="M3.6433 7.96429C2.38173 7.96004 1.35556 8.97524 1.35128 10.2318C1.34701 11.4884 2.36626 12.5105 3.62783 12.5148C4.8894 12.519 5.91557 11.5038 5.91984 10.2472C5.92412 8.99065 4.90487 7.96855 3.6433 7.96429Z" stroke="#282828" stroke-width="0.5"/>
<path d="M18.8984 16.2096C18.9023 15.0707 19.8324 14.1505 20.9759 14.1543C22.1194 14.1582 23.0433 15.0846 23.0394 16.2236C23.0355 17.3625 22.1054 18.2827 20.9619 18.2789C19.8184 18.275 18.8945 17.3486 18.8984 16.2096Z" stroke="#282828" stroke-width="0.5"/>
<path fill-rule="evenodd" clip-rule="evenodd" d="M7.62684 27.5622C7.62287 27.6241 7.62081 27.6865 7.6206 27.7493C7.61478 29.4497 8.99399 30.8328 10.7011 30.8385C12.4083 30.8443 13.7969 29.4705 13.8026 27.7702C13.8028 27.7066 13.8011 27.6434 13.7975 27.5807C17.8487 26.3804 20.8971 22.8533 21.3747 18.5506C21.2402 18.5736 21.1018 18.5854 20.9606 18.585C20.9242 18.5849 20.8881 18.5839 20.8521 18.5822C20.3689 22.6112 17.5154 25.9116 13.7239 27.0663C13.4091 25.7039 12.1862 24.6859 10.7221 24.681C9.25718 24.6761 8.02686 25.6869 7.7035 27.0482C3.5524 25.7568 0.54602 21.8907 0.561512 17.3323C0.566663 15.8165 0.905455 14.3795 1.50839 13.09C1.36492 12.9836 1.22978 12.8667 1.10408 12.7405C0.431075 14.1291 0.0515514 15.6857 0.0459611 17.3306C0.0295886 22.148 3.22564 26.2295 7.62684 27.5622ZM6.51195 8.13985C7.81058 7.54808 9.25558 7.22035 10.7775 7.22549C15.1798 7.24033 18.92 10.0359 20.3274 13.9367C20.4932 13.8905 20.6664 13.8618 20.8447 13.8527C19.3913 9.70766 15.4381 6.72769 10.7792 6.71198C9.12778 6.70643 7.5625 7.0739 6.1638 7.73479C6.28964 7.86086 6.40611 7.99627 6.51195 8.13985Z" fill="#282828"/>
</svg>
