<svg width="17" height="18" viewBox="0 0 17 18" fill="none" xmlns="http://www.w3.org/2000/svg">
<path d="M15.4497 6.7671L3.78305 0.933766C3.32263 0.704607 2.80273 0.623025 2.29425 0.700142C1.78576 0.77726 1.31343 1.00932 0.941661 1.3647C0.569887 1.72007 0.316762 2.18145 0.216795 2.68594C0.116828 3.19043 0.174886 3.71348 0.383051 4.18377L2.38305 8.65877C2.42843 8.76696 2.4518 8.88311 2.4518 9.00043C2.4518 9.11776 2.42843 9.23391 2.38305 9.3421L0.383051 13.8171C0.213635 14.1977 0.142014 14.6146 0.174699 15.0299C0.207383 15.4452 0.343336 15.8458 0.570203 16.1952C0.797069 16.5446 1.10766 16.8318 1.47374 17.0306C1.83982 17.2295 2.24979 17.3337 2.66638 17.3338C3.05658 17.3299 3.44096 17.2388 3.79138 17.0671L15.4581 11.2338C15.8719 11.0256 16.2197 10.7065 16.4628 10.3122C16.7059 9.91781 16.8346 9.46368 16.8346 9.00043C16.8346 8.53719 16.7059 8.08306 16.4628 7.6887C16.2197 7.29435 15.8719 6.97528 15.4581 6.7671H15.4497ZM14.7081 9.7421L3.04138 15.5754C2.88819 15.649 2.71616 15.674 2.54837 15.647C2.38059 15.62 2.22506 15.5424 2.10265 15.4245C1.98023 15.3066 1.89679 15.1541 1.86349 14.9875C1.8302 14.8208 1.84866 14.648 1.91638 14.4921L3.90805 10.0171C3.93383 9.95734 3.95609 9.89613 3.97472 9.83377H9.71638C9.9374 9.83377 10.1494 9.74597 10.3056 9.58969C10.4619 9.43341 10.5497 9.22145 10.5497 9.00043C10.5497 8.77942 10.4619 8.56746 10.3056 8.41118C10.1494 8.2549 9.9374 8.1671 9.71638 8.1671H3.97472C3.95609 8.10474 3.93383 8.04352 3.90805 7.98377L1.91638 3.50877C1.84866 3.3529 1.8302 3.18006 1.86349 3.01341C1.89679 2.84676 1.98023 2.69427 2.10265 2.57639C2.22506 2.45851 2.38059 2.38087 2.54837 2.35389C2.71616 2.32691 2.88819 2.35187 3.04138 2.42543L14.7081 8.25877C14.8446 8.3287 14.9591 8.43494 15.0391 8.5658C15.1191 8.69666 15.1614 8.84706 15.1614 9.00043C15.1614 9.1538 15.1191 9.3042 15.0391 9.43506C14.9591 9.56592 14.8446 9.67217 14.7081 9.7421Z" fill="white"/>
</svg>
