<svg width="20" height="20" viewBox="0 0 20 20" fill="none" xmlns="http://www.w3.org/2000/svg">
<path d="M4.66667 6.66675V6.16675L4.16667 6.16675C3.85725 6.16675 3.5605 6.04383 3.34171 5.82504C3.12292 5.60625 3 5.3095 3 5.00008V3.33341C3 3.024 3.12292 2.72725 3.34171 2.50846C3.5605 2.28966 3.85725 2.16675 4.16667 2.16675H15.8333C16.1428 2.16675 16.4395 2.28966 16.6583 2.50846C16.8771 2.72725 17 3.024 17 3.33341V5.00008C17 5.3095 16.8771 5.60625 16.6583 5.82504C16.4395 6.04383 16.1428 6.16675 15.8333 6.16675L15.3333 6.16675V6.66675V15.8334C15.3333 16.3638 15.1226 16.8726 14.7475 17.2476C14.3725 17.6227 13.8638 17.8334 13.3333 17.8334H6.66667C6.13623 17.8334 5.62753 17.6227 5.25245 17.2476C4.87738 16.8726 4.66667 16.3638 4.66667 15.8334V6.66675ZM14.1667 13.8334H14.6667V13.3334V10.0001V9.50008H14.1667H9.16667H8.66667V10.0001V13.3334V13.8334H9.16667H14.1667ZM14.1667 8.83342H14.6667V8.33342V6.66675V6.16675H14.1667H5.83333H5.33333V6.66675V15.8334C5.33333 16.187 5.47381 16.5262 5.72386 16.7762C5.97391 17.0263 6.31305 17.1667 6.66667 17.1667H13.3333C13.687 17.1667 14.0261 17.0263 14.2761 16.7762C14.5262 16.5262 14.6667 16.187 14.6667 15.8334V15.0001V14.5001H14.1667H8.33333C8.24493 14.5001 8.16014 14.465 8.09763 14.4025C8.03512 14.3399 8 14.2552 8 14.1667V9.16675C8 9.07834 8.03512 8.99356 8.09763 8.93105C8.16014 8.86853 8.24493 8.83342 8.33333 8.83342H14.1667ZM3.66667 5.00008V5.50008H4.16667H15.8333H16.3333V5.00008V3.33341V2.83341H15.8333H4.16667H3.66667V3.33341V5.00008Z"  stroke-width="0.8"/>
</svg>
