<svg width="20" height="20" viewBox="0 0 20 20" fill="none" xmlns="http://www.w3.org/2000/svg">
<path d="M10 13.75C12.0711 13.75 13.75 12.0711 13.75 10C13.75 7.92893 12.0711 6.25 10 6.25C7.92893 6.25 6.25 7.92893 6.25 10C6.25 12.0711 7.92893 13.75 10 13.75Z" stroke="#686868" stroke-width="1.5" stroke-linecap="round" stroke-linejoin="round"/>
<path d="M14.3489 5.08481C14.5491 5.26202 14.7383 5.45123 14.9155 5.65138L17.0501 5.95619C17.3962 6.55896 17.6631 7.2039 17.8441 7.87501L16.5508 9.59937C16.5508 9.59937 16.567 10.1337 16.5508 10.4005L17.8447 12.1254C17.6632 12.7964 17.3959 13.4412 17.0493 14.0437L14.9155 14.3485C14.9155 14.3485 14.5492 14.7378 14.349 14.915L14.0442 17.0496C13.4415 17.3957 12.7965 17.6626 12.1254 17.8436L10.4012 16.5503C10.1343 16.5666 9.86674 16.5666 9.5999 16.5503L7.87501 17.8442C7.20402 17.6627 6.55926 17.3954 5.95673 17.0488L5.65198 14.9151C5.45183 14.7379 5.26262 14.5487 5.0854 14.3486L2.95085 14.0437C2.60469 13.441 2.33781 12.796 2.15681 12.1249L3.45013 10.4006C3.45013 10.4006 3.43386 9.86624 3.45008 9.59942L2.15625 7.87453C2.3377 7.20354 2.60503 6.55878 2.95159 5.95625L5.0853 5.6515C5.26251 5.45135 5.45172 5.26214 5.65187 5.08492L5.95668 2.95036C6.55945 2.60421 7.20438 2.33732 7.8755 2.15632L9.59975 3.4496C9.86659 3.43337 10.1342 3.43337 10.401 3.44959L12.1259 2.15576C12.7969 2.33722 13.4416 2.60454 14.0442 2.9511L14.3489 5.08481Z" stroke="#686868" stroke-width="1.5" stroke-linecap="round" stroke-linejoin="round"/>
</svg>
