<svg width="18" height="18" viewBox="0 0 18 18" fill="none" xmlns="http://www.w3.org/2000/svg">
<mask id="path-1-inside-1_2544_9918" fill="white">
<path d="M16.4993 14.0001H14.8327V11.5001C14.8327 11.2791 14.7449 11.0671 14.5886 10.9108C14.4323 10.7546 14.2204 10.6668 13.9993 10.6668H9.83268V8.40842L10.7743 8.90009C10.9117 8.97193 11.0663 9.00405 11.2209 8.99284C11.3755 8.98163 11.5239 8.92754 11.6494 8.83664C11.7749 8.74574 11.8726 8.62164 11.9315 8.47828C11.9904 8.33491 12.0081 8.17797 11.9827 8.02509L11.6493 6.05009L13.0827 4.64175C13.1912 4.53574 13.2688 4.4021 13.307 4.25524C13.3452 4.10838 13.3425 3.95389 13.2993 3.80842C13.251 3.66032 13.1622 3.52872 13.0429 3.42855C12.9236 3.32839 12.7786 3.26368 12.6243 3.24176L10.666 2.93342L9.74935 1.13342C9.68111 0.992529 9.57457 0.873707 9.44192 0.790567C9.30928 0.707426 9.1559 0.66333 8.99935 0.66333C8.8428 0.66333 8.68942 0.707426 8.55678 0.790567C8.42413 0.873707 8.31759 0.992529 8.24935 1.13342L7.33268 2.93342L5.34102 3.22509C5.18678 3.24701 5.04179 3.31172 4.92247 3.41189C4.80316 3.51205 4.71432 3.64365 4.66602 3.79176C4.62284 3.93722 4.6202 4.09172 4.65838 4.23857C4.69656 4.38543 4.77412 4.51907 4.88268 4.62509L6.34935 6.05009L6.01602 8.02509C5.99061 8.17797 6.00835 8.33491 6.06722 8.47828C6.1261 8.62164 6.22379 8.74574 6.34932 8.83664C6.47485 8.92754 6.62323 8.98163 6.77781 8.99284C6.93238 9.00405 7.08702 8.97193 7.22435 8.90009L8.16602 8.40842V10.6668H3.99935C3.77834 10.6668 3.56637 10.7546 3.41009 10.9108C3.25381 11.0671 3.16602 11.2791 3.16602 11.5001V14.0001H1.49935C1.27834 14.0001 1.06637 14.0879 0.910093 14.2442C0.753813 14.4004 0.666016 14.6124 0.666016 14.8334V16.5001C0.666016 16.7211 0.753813 16.9331 0.910093 17.0893C1.06637 17.2456 1.27834 17.3334 1.49935 17.3334C1.72036 17.3334 1.93232 17.2456 2.0886 17.0893C2.24489 16.9331 2.33268 16.7211 2.33268 16.5001V15.6668H5.66602V16.5001C5.66602 16.7211 5.75381 16.9331 5.91009 17.0893C6.06637 17.2456 6.27834 17.3334 6.49935 17.3334C6.72036 17.3334 6.93232 17.2456 7.0886 17.0893C7.24489 16.9331 7.33268 16.7211 7.33268 16.5001V14.8334C7.33268 14.6124 7.24489 14.4004 7.0886 14.2442C6.93232 14.0879 6.72036 14.0001 6.49935 14.0001H4.83268V12.3334H13.166V14.0001H11.4993C11.2783 14.0001 11.0664 14.0879 10.9101 14.2442C10.7538 14.4004 10.666 14.6124 10.666 14.8334V16.5001C10.666 16.7211 10.7538 16.9331 10.9101 17.0893C11.0664 17.2456 11.2783 17.3334 11.4993 17.3334C11.7204 17.3334 11.9323 17.2456 12.0886 17.0893C12.2449 16.9331 12.3327 16.7211 12.3327 16.5001V15.6668H15.666V16.5001C15.666 16.7211 15.7538 16.9331 15.9101 17.0893C16.0664 17.2456 16.2783 17.3334 16.4993 17.3334C16.7204 17.3334 16.9323 17.2456 17.0886 17.0893C17.2449 16.9331 17.3327 16.7211 17.3327 16.5001V14.8334C17.3327 14.6124 17.2449 14.4004 17.0886 14.2442C16.9323 14.0879 16.7204 14.0001 16.4993 14.0001ZM8.99935 6.19176C8.86257 6.19244 8.72805 6.22678 8.60768 6.29176L7.94102 6.64176L8.06602 5.89176C8.08788 5.75909 8.07732 5.62311 8.03524 5.49541C7.99316 5.36771 7.9208 5.25209 7.82435 5.15842L7.28268 4.62509L8.03268 4.51676C8.16686 4.49883 8.29465 4.44848 8.405 4.37008C8.51535 4.29167 8.60494 4.18756 8.66602 4.06676L8.99935 3.38342L9.33268 4.06676C9.39376 4.18756 9.48335 4.29167 9.5937 4.37008C9.70405 4.44848 9.83184 4.49883 9.96602 4.51676L10.716 4.62509L10.1743 5.15842C10.0779 5.25209 10.0055 5.36771 9.96346 5.49541C9.92138 5.62311 9.91082 5.75909 9.93268 5.89176L10.0577 6.64176L9.39102 6.29176C9.27065 6.22678 9.13613 6.19244 8.99935 6.19176Z" stroke-width="0" />
</mask>
<path d="M16.4993 14.0001H14.8327V11.5001C14.8327 11.2791 14.7449 11.0671 14.5886 10.9108C14.4323 10.7546 14.2204 10.6668 13.9993 10.6668H9.83268V8.40842L10.7743 8.90009C10.9117 8.97193 11.0663 9.00405 11.2209 8.99284C11.3755 8.98163 11.5239 8.92754 11.6494 8.83664C11.7749 8.74574 11.8726 8.62164 11.9315 8.47828C11.9904 8.33491 12.0081 8.17797 11.9827 8.02509L11.6493 6.05009L13.0827 4.64175C13.1912 4.53574 13.2688 4.4021 13.307 4.25524C13.3452 4.10838 13.3425 3.95389 13.2993 3.80842C13.251 3.66032 13.1622 3.52872 13.0429 3.42855C12.9236 3.32839 12.7786 3.26368 12.6243 3.24176L10.666 2.93342L9.74935 1.13342C9.68111 0.992529 9.57457 0.873707 9.44192 0.790567C9.30928 0.707426 9.1559 0.66333 8.99935 0.66333C8.8428 0.66333 8.68942 0.707426 8.55678 0.790567C8.42413 0.873707 8.31759 0.992529 8.24935 1.13342L7.33268 2.93342L5.34102 3.22509C5.18678 3.24701 5.04179 3.31172 4.92247 3.41189C4.80316 3.51205 4.71432 3.64365 4.66602 3.79176C4.62284 3.93722 4.6202 4.09172 4.65838 4.23857C4.69656 4.38543 4.77412 4.51907 4.88268 4.62509L6.34935 6.05009L6.01602 8.02509C5.99061 8.17797 6.00835 8.33491 6.06722 8.47828C6.1261 8.62164 6.22379 8.74574 6.34932 8.83664C6.47485 8.92754 6.62323 8.98163 6.77781 8.99284C6.93238 9.00405 7.08702 8.97193 7.22435 8.90009L8.16602 8.40842V10.6668H3.99935C3.77834 10.6668 3.56637 10.7546 3.41009 10.9108C3.25381 11.0671 3.16602 11.2791 3.16602 11.5001V14.0001H1.49935C1.27834 14.0001 1.06637 14.0879 0.910093 14.2442C0.753813 14.4004 0.666016 14.6124 0.666016 14.8334V16.5001C0.666016 16.7211 0.753813 16.9331 0.910093 17.0893C1.06637 17.2456 1.27834 17.3334 1.49935 17.3334C1.72036 17.3334 1.93232 17.2456 2.0886 17.0893C2.24489 16.9331 2.33268 16.7211 2.33268 16.5001V15.6668H5.66602V16.5001C5.66602 16.7211 5.75381 16.9331 5.91009 17.0893C6.06637 17.2456 6.27834 17.3334 6.49935 17.3334C6.72036 17.3334 6.93232 17.2456 7.0886 17.0893C7.24489 16.9331 7.33268 16.7211 7.33268 16.5001V14.8334C7.33268 14.6124 7.24489 14.4004 7.0886 14.2442C6.93232 14.0879 6.72036 14.0001 6.49935 14.0001H4.83268V12.3334H13.166V14.0001H11.4993C11.2783 14.0001 11.0664 14.0879 10.9101 14.2442C10.7538 14.4004 10.666 14.6124 10.666 14.8334V16.5001C10.666 16.7211 10.7538 16.9331 10.9101 17.0893C11.0664 17.2456 11.2783 17.3334 11.4993 17.3334C11.7204 17.3334 11.9323 17.2456 12.0886 17.0893C12.2449 16.9331 12.3327 16.7211 12.3327 16.5001V15.6668H15.666V16.5001C15.666 16.7211 15.7538 16.9331 15.9101 17.0893C16.0664 17.2456 16.2783 17.3334 16.4993 17.3334C16.7204 17.3334 16.9323 17.2456 17.0886 17.0893C17.2449 16.9331 17.3327 16.7211 17.3327 16.5001V14.8334C17.3327 14.6124 17.2449 14.4004 17.0886 14.2442C16.9323 14.0879 16.7204 14.0001 16.4993 14.0001ZM8.99935 6.19176C8.86257 6.19244 8.72805 6.22678 8.60768 6.29176L7.94102 6.64176L8.06602 5.89176C8.08788 5.75909 8.07732 5.62311 8.03524 5.49541C7.99316 5.36771 7.9208 5.25209 7.82435 5.15842L7.28268 4.62509L8.03268 4.51676C8.16686 4.49883 8.29465 4.44848 8.405 4.37008C8.51535 4.29167 8.60494 4.18756 8.66602 4.06676L8.99935 3.38342L9.33268 4.06676C9.39376 4.18756 9.48335 4.29167 9.5937 4.37008C9.70405 4.44848 9.83184 4.49883 9.96602 4.51676L10.716 4.62509L10.1743 5.15842C10.0779 5.25209 10.0055 5.36771 9.96346 5.49541C9.92138 5.62311 9.91082 5.75909 9.93268 5.89176L10.0577 6.64176L9.39102 6.29176C9.27065 6.22678 9.13613 6.19244 8.99935 6.19176Z" stroke="#686868" stroke-width="2" mask="url(#path-1-inside-1_2544_9918)"/>
</svg>
