<svg width="21" height="20" viewBox="0 0 21 20" fill="none" xmlns="http://www.w3.org/2000/svg">
<path d="M15.625 10.625H19.375" stroke="white" stroke-width="1.5" stroke-linecap="round" stroke-linejoin="round"/>
<path d="M17.5 8.75V12.5" stroke="white" stroke-width="1.5" stroke-linecap="round" stroke-linejoin="round"/>
<path d="M8.4375 12.5C11.0263 12.5 13.125 10.4013 13.125 7.8125C13.125 5.22367 11.0263 3.125 8.4375 3.125C5.84867 3.125 3.75 5.22367 3.75 7.8125C3.75 10.4013 5.84867 12.5 8.4375 12.5Z" stroke="white" stroke-width="1.5" stroke-linecap="round" stroke-linejoin="round"/>
<path d="M1.73438 15.6248C2.55573 14.6463 3.5814 13.8594 4.73932 13.3196C5.89724 12.7797 7.15933 12.5 8.43691 12.5C9.71449 12.5 10.9766 12.7798 12.1345 13.3196C13.2924 13.8595 14.3181 14.6463 15.1394 15.6249" stroke="white" stroke-width="1.5" stroke-linecap="round" stroke-linejoin="round"/>
</svg>
