<svg width="16" height="12" viewBox="0 0 16 12" fill="none" xmlns="http://www.w3.org/2000/svg">
<path d="M8.00026 0C11.5949 0 14.5856 2.58667 15.2129 6C14.5863 9.41333 11.5949 12 8.00026 12C4.4056 12 1.41493 9.41333 0.787598 6C1.41426 2.58667 4.4056 0 8.00026 0ZM8.00026 10.6667C9.35991 10.6664 10.6792 10.2045 11.7422 9.35678C12.8051 8.50901 13.5489 7.32552 13.8516 6C13.5478 4.67554 12.8036 3.49334 11.7407 2.64668C10.6778 1.80003 9.35913 1.33902 8.00026 1.33902C6.6414 1.33902 5.32272 1.80003 4.25985 2.64668C3.19697 3.49334 2.45278 4.67554 2.14893 6C2.45166 7.32552 3.19538 8.50901 4.25836 9.35678C5.32134 10.2045 6.64062 10.6664 8.00026 10.6667ZM8.00026 9C7.20462 9 6.44155 8.68393 5.87894 8.12132C5.31634 7.55871 5.00026 6.79565 5.00026 6C5.00026 5.20435 5.31634 4.44129 5.87894 3.87868C6.44155 3.31607 7.20462 3 8.00026 3C8.79591 3 9.55898 3.31607 10.1216 3.87868C10.6842 4.44129 11.0003 5.20435 11.0003 6C11.0003 6.79565 10.6842 7.55871 10.1216 8.12132C9.55898 8.68393 8.79591 9 8.00026 9ZM8.00026 7.66667C8.44229 7.66667 8.86622 7.49107 9.17878 7.17851C9.49134 6.86595 9.66693 6.44203 9.66693 6C9.66693 5.55797 9.49134 5.13405 9.17878 4.82149C8.86622 4.50893 8.44229 4.33333 8.00026 4.33333C7.55824 4.33333 7.13431 4.50893 6.82175 4.82149C6.50919 5.13405 6.3336 5.55797 6.3336 6C6.3336 6.44203 6.50919 6.86595 6.82175 7.17851C7.13431 7.49107 7.55824 7.66667 8.00026 7.66667Z" fill="#666666"/>
</svg>
